<?xml version="1.0" encoding="utf-8"?>
<svg viewBox="0 0 500 500" xmlns="http://www.w3.org/2000/svg">
  <g transform="matrix(1, 0, 0, 1, 73.612251, -42.133945)">
    <g>
      <path d="m329.631 417.702c24.15-11.303 45.495-27.6 62.706-47.562 8.342-9.676-.349-24.557-12.879-22.066-11.861 2.358-24.124 3.598-36.677 3.603-103.691.044-187.672-83.901-187.671-187.591 0-19.12 2.861-37.572 8.178-54.952 3.783-12.365-10.206-22.46-20.787-15.028-48.028 33.737-79.516 89.424-79.882 152.488-.599 103.406 84.182 188.703 187.589 188.703" fill="#4ab7ff"/>
      <g fill="#fff398">
        <path d="m350.157 198.404c-.887-3.111-5.296-3.111-6.183 0v.001c-4.214 14.772-15.761 26.319-30.534 30.534-3.111.887-3.111 5.296 0 6.183 14.773 4.214 26.32 15.761 30.534 30.534.887 3.111 5.296 3.111 6.183 0 4.214-14.773 15.761-26.32 30.534-30.534 3.111-.887 3.111-5.296 0-6.183-14.773-4.216-26.32-15.763-30.534-30.535z"/>
        <path d="m245.711 136.992c-1.048-3.674-6.254-3.674-7.302 0v.001c-4.977 17.445-18.613 31.081-36.058 36.058h-.001c-3.673 1.048-3.673 6.254 0 7.302 17.445 4.977 31.082 18.613 36.058 36.058 1.048 3.673 6.254 3.673 7.302 0 4.977-17.445 18.613-31.082 36.058-36.058 3.673-1.048 3.673-6.254 0-7.302-17.444-4.977-31.08-18.613-36.057-36.059z"/>
        <path d="m364.508 61.264c-1.048-3.674-6.254-3.674-7.302 0v.001c-4.977 17.445-18.613 31.081-36.058 36.058h-.001c-3.673 1.048-3.673 6.254 0 7.302 17.445 4.977 31.082 18.613 36.058 36.058 1.048 3.673 6.254 3.673 7.302 0 4.977-17.445 18.613-31.082 36.058-36.058 3.673-1.048 3.673-6.254 0-7.302-17.445-4.977-31.081-18.613-36.057-36.059z"/>
      </g>
    </g>
    <g>
      <g>
        <path d="m250.208 445.297c-52.687 0-102.363-20.78-139.877-58.512-37.521-37.74-58.017-87.548-57.711-140.249.371-63.825 31.823-123.868 84.134-160.613 18.369-12.903 42.664 4.674 36.098 26.136-18.514 60.52-4.032 129.358 44.28 177.65 43.909 43.89 104.461 59.672 160.377 48.557 21.878-4.352 36.941 21.542 22.402 38.404-18.137 21.037-40.974 38.357-66.041 50.089-5 2.344-10.955.184-13.296-4.818s-.184-10.955 4.818-13.296c22.532-10.545 43.062-26.118 59.371-45.035 2.145-2.487-.122-6.372-3.354-5.729-62.147 12.355-129.512-5.144-178.416-54.028-37.326-37.31-57.882-86.947-57.882-139.769 0-19.717 2.899-39.19 8.616-57.877 1.011-3.303-2.671-5.893-5.477-3.919-47.023 33.031-75.296 86.999-75.63 144.363-.275 47.337 18.155 92.096 51.894 126.032 33.732 33.928 78.371 52.613 125.694 52.613 5.523 0 10 4.477 10 10s-4.477 10.001-10 10.001z"/>
      </g>
      <g>
        <path d="m347.065 277.988c-.001 0-.001 0 0 0-5.965 0-11.072-3.854-12.708-9.59-3.288-11.527-12.133-20.372-23.661-23.661-5.735-1.636-9.589-6.742-9.59-12.707 0-5.965 3.853-11.072 9.589-12.709 11.528-3.288 20.373-12.133 23.662-23.66 1.636-5.736 6.744-9.59 12.708-9.59h.001c5.964 0 11.071 3.854 12.707 9.59 3.289 11.527 12.133 20.373 23.661 23.661 5.737 1.637 9.59 6.744 9.59 12.709 0 5.964-3.854 11.071-9.59 12.707-11.527 3.288-20.372 12.133-23.66 23.661-1.638 5.735-6.745 9.589-12.709 9.589zm-16.37-45.959c6.585 4.21 12.16 9.784 16.37 16.369 4.21-6.584 9.784-12.159 16.369-16.369-6.585-4.21-12.159-9.785-16.369-16.37-4.21 6.586-9.785 12.16-16.37 16.37z"/>
      </g>
      <g>
        <path d="m228.793 219.154c-4.056-14.219-14.967-25.129-29.186-29.186-13.314-3.798-13.346-22.728 0-26.534 14.219-4.056 25.129-14.966 29.186-29.185 3.797-13.316 22.728-13.346 26.534-.001 4.056 14.219 14.966 25.129 29.185 29.185 13.316 3.798 13.344 22.728 0 26.534-14.219 4.056-25.129 14.967-29.186 29.186-3.796 13.315-22.726 13.346-26.533.001zm-9.553-42.453c9.506 5.463 17.358 13.315 22.821 22.821 5.463-9.506 13.315-17.358 22.821-22.821-9.506-5.463-17.358-13.315-22.821-22.821-5.463 9.506-13.315 17.358-22.821 22.821z"/>
      </g>
      <g>
        <path d="m347.59 143.426c-4.057-14.219-14.967-25.129-29.186-29.186-13.314-3.797-13.346-22.727 0-26.534 14.218-4.057 25.129-14.967 29.185-29.185 3.808-13.345 22.727-13.348 26.534 0 4.056 14.218 14.966 25.129 29.185 29.185 13.315 3.799 13.347 22.727 0 26.534-14.218 4.056-25.129 14.967-29.185 29.186-3.807 13.344-22.726 13.347-26.533 0zm-9.554-42.453c9.505 5.463 17.357 13.315 22.82 22.821 5.463-9.506 13.315-17.358 22.821-22.821-9.505-5.463-17.357-13.315-22.82-22.821-5.463 9.506-13.315 17.358-22.821 22.821z"/>
      </g>
      <g>
        <g>
          <g/>
          <g/>
        </g>
        <g>
          <g/>
          <g/>
        </g>
      </g>
      <g>
        <path d="m290.667 441.244c-5.523 0-10-4.477-10-10s4.477-10.012 10-10.012 10 4.464 10 9.987v.025c0 5.523-4.478 10-10 10z"/>
      </g>
    </g>
  </g>
</svg>